# xmcd
#
# Track frame offsets: 
#        150
#        15102
#        32400
#        52375
#        77902
#        97947
#        117135
#        134452
#        150525
#        178320
#        205877
#        217797
#        236787
#        258437
#        271625
#
# Disc length: 3987 seconds
#
# Revision: 11
# Processed by: cddbd v1.4PL0 Copyright (c) Steve Scherf et al.
# Submitted via: ExactAudioCopy v0.90b4
#
DISCID=c20f910f
DTITLE=Lou Reed - Perfect Night Live in London
DYEAR=1998
DGENRE=Rock
TTITLE0=I'll Be Your Mirror
TTITLE1=Perfect Day
TTITLE2=The Kids
TTITLE3=Vicious
TTITLE4=Busload Of Faith
TTITLE5=Kicks
TTITLE6=Talking Book
TTITLE7=Into The Divine
TTITLE8=Coney Island Baby
TTITLE9=New Sensations
TTITLE10=Why Do You Talk
TTITLE11=Riptide
TTITLE12=Original Wrapper
TTITLE13=Sex With Your Parents
TTITLE14=Dirty Blvd.
EXTD=ID3G:   0
EXTT0=
EXTT1=
EXTT2=
EXTT3=
EXTT4=
EXTT5=
EXTT6=
EXTT7=
EXTT8=
EXTT9=
EXTT10=
EXTT11=
EXTT12=
EXTT13=
EXTT14=
PLAYORDER=
